<svg width="256" height="256" viewBox="0 0 256 256" fill="none" xmlns="http://www.w3.org/2000/svg">
<rect width="256" height="256" fill="#F54900"/>
<path d="M133.567 220.88C113.087 220.88 97.8069 213.44 87.7269 198.56C77.8069 183.68 72.8469 162.24 72.8469 134.24C72.8469 106.24 77.8069 84.8 87.7269 69.92C97.8069 55.04 113.087 47.6 133.567 47.6C141.247 47.6 147.887 48.64 153.487 50.72C159.087 52.8 163.887 55.6 167.887 59.12C171.887 62.64 175.247 66.64 177.967 71.12C180.687 75.44 183.087 79.84 185.167 84.32L167.887 92.24C166.447 88.56 164.767 85.12 162.847 81.92C160.927 78.56 158.607 75.68 155.887 73.28C153.327 70.72 150.207 68.72 146.527 67.28C143.007 65.84 138.687 65.12 133.567 65.12C120.287 65.12 110.367 70.16 103.807 80.24C97.4069 90.32 94.2069 103.76 94.2069 120.56V147.92C94.2069 164.72 97.4069 178.16 103.807 188.24C110.367 198.32 120.287 203.36 133.567 203.36C138.687 203.36 143.007 202.64 146.527 201.2C150.207 199.76 153.327 197.84 155.887 195.44C158.607 192.88 160.927 190 162.847 186.8C164.767 183.44 166.447 179.92 167.887 176.24L185.167 184.16C183.087 188.8 180.687 193.28 177.967 197.6C175.247 201.92 171.887 205.84 167.887 209.36C163.887 212.88 159.087 215.68 153.487 217.76C147.887 219.84 141.247 220.88 133.567 220.88Z" fill="#121212"/>
</svg>
